<?xml version="1.0" encoding="UTF-8" standalone="no"?>
<!-- Created with Inkscape (http://www.inkscape.org/) -->

<svg
   width="400"
   height="300"
   viewBox="0 0 105.83333 79.375002"
   version="1.1"
   id="svg918"
   inkscape:version="1.1.2 (0a00cf5339, 2022-02-04)"
   sodipodi:docname="drawing.svg"
   inkscape:export-filename="hub-hub.png"
   inkscape:export-xdpi="96"
   inkscape:export-ydpi="96"
   xmlns:inkscape="http://www.inkscape.org/namespaces/inkscape"
   xmlns:sodipodi="http://sodipodi.sourceforge.net/DTD/sodipodi-0.dtd"
   xmlns="http://www.w3.org/2000/svg"
   xmlns:svg="http://www.w3.org/2000/svg">
  <sodipodi:namedview
     id="namedview920"
     pagecolor="#ffffff"
     bordercolor="#666666"
     borderopacity="1.0"
     inkscape:pageshadow="2"
     inkscape:pageopacity="0.0"
     inkscape:pagecheckerboard="0"
     inkscape:document-units="px"
     showgrid="false"
     units="px"
     inkscape:zoom="1.3835969"
     inkscape:cx="197.3118"
     inkscape:cy="282.95813"
     inkscape:window-width="1856"
     inkscape:window-height="1136"
     inkscape:window-x="64"
     inkscape:window-y="27"
     inkscape:window-maximized="1"
     inkscape:current-layer="layer1"
     inkscape:snap-global="false" />
  <defs
     id="defs915" />
  <g
     inkscape:label="Layer 1"
     inkscape:groupmode="layer"
     id="layer1">
    <rect
       style="fill:#e4e4e4;fill-opacity:1;stroke:#9c9c9c;stroke-width:0.651958;stroke-miterlimit:4;stroke-dasharray:none"
       id="rect1165"
       width="36.496899"
       height="42.712177"
       x="4.3270869"
       y="12.773669"
       ry="3.542073"
       rx="3.542073" />
    <rect
       style="fill:#00b333;fill-opacity:1;stroke:none;stroke-width:0.0539879"
       id="rect1741"
       width="6.5357037"
       height="7.6487093"
       x="19.307684"
       y="20.572239"
       rx="0.38744092"
       ry="0.38731337" />
    <rect
       style="fill:#00dee9;fill-opacity:1;stroke:none;stroke-width:0.0269971"
       id="rect2965"
       width="2.3390591"
       height="5.3441834"
       x="21.406006"
       y="12.602897" />
    <rect
       style="fill:#e4e4e4;fill-opacity:1;stroke:#000000;stroke-width:0.264583;stroke-miterlimit:4;stroke-dasharray:none;stroke-opacity:1"
       id="rect3669"
       width="43.98315"
       height="26.8218"
       x="58.839268"
       y="2.8682928"
       rx="2.3725815"
       ry="2.3720136" />
    <path
       style="fill:none;stroke:#000000;stroke-width:0.264583px;stroke-linecap:butt;stroke-linejoin:miter;stroke-opacity:1"
       d="M 58.893841,24.619919 H 102.76783"
       id="path4164" />
    <rect
       style="fill:#e4e4e4;fill-opacity:1;stroke:#000000;stroke-width:0.264583;stroke-miterlimit:4;stroke-dasharray:none;stroke-opacity:1"
       id="rect4268"
       width="2.7019715"
       height="7.4850268"
       x="79.479851"
       y="29.710674" />
    <rect
       style="fill:#e4e4e4;fill-opacity:1;stroke:#000000;stroke-width:0.264583;stroke-miterlimit:4;stroke-dasharray:none;stroke-opacity:1"
       id="rect4350"
       width="3.0509169"
       height="22.775749"
       x="35.658352"
       y="-92.218712"
       transform="rotate(90)"
       rx="0.51594687"
       ry="0.51607037" />
    <path
       style="fill:#ffffff;fill-opacity:1;stroke:none;stroke-width:0.0618465;stroke-miterlimit:4;stroke-dasharray:none;stroke-opacity:1"
       d="m 59.063525,14.566982 0.02033,-9.8299627 0.162861,-0.3522247 c 0.315644,-0.6826542 0.917775,-1.1326347 1.71203,-1.2794253 0.26053,-0.04815 7.426365,-0.067636 20.179533,-0.054875 l 19.775541,0.019787 0.3789,0.1742005 c 0.49481,0.2274961 0.92155,0.6425863 1.145,1.1137331 l 0.17964,0.3788042 6.5e-4,9.8299619 6.5e-4,9.829963 H 80.83084 59.043017 Z"
       id="path4469" />
    <rect
       style="fill:#e4e4e4;fill-opacity:1;stroke:#000000;stroke-width:0.264583;stroke-miterlimit:4;stroke-dasharray:none;stroke-opacity:1"
       id="rect5840"
       width="30.588511"
       height="18.636734"
       x="44.695293"
       y="-89.594688"
       rx="1.6500349"
       ry="1.6481587"
       transform="rotate(90)" />
    <ellipse
       style="fill:none;fill-opacity:1;stroke:#000000;stroke-width:0.264583;stroke-miterlimit:4;stroke-dasharray:none;stroke-opacity:1"
       id="path5864"
       cx="80.276329"
       cy="71.799095"
       rx="2.0442581"
       ry="2.0435219" />
    <path
       style="fill:none;stroke:#000000;stroke-width:0.264583px;stroke-linecap:butt;stroke-linejoin:miter;stroke-opacity:1"
       d="M 71.063856,68.5508 H 89.488808"
       id="path6180" />
    <path
       style="fill:#ffffff;fill-opacity:1;stroke:none;stroke-width:0.264583;stroke-miterlimit:4;stroke-dasharray:none;stroke-opacity:1"
       d="m 71.140528,57.149631 0.01149,-11.228239 0.118244,-0.223885 c 0.16396,-0.310448 0.500294,-0.612108 0.812768,-0.728978 l 0.257246,-0.09621 7.994608,0.01164 7.994606,0.01164 0.282594,0.15316 c 0.311546,0.168849 0.532549,0.407689 0.686967,0.742408 l 0.101241,0.219451 0.01167,11.183635 0.01167,11.183636 h -9.147291 -9.147307 z"
       id="path6219" />
    <text
       xml:space="preserve"
       style="font-style:normal;font-weight:normal;font-size:8.97099px;line-height:1.25;font-family:sans-serif;fill:#000000;fill-opacity:1;stroke:none;stroke-width:0.264583"
       x="71.793228"
       y="15.909644"
       id="text12710"
       transform="scale(1.0001197,0.99988036)"><tspan
         sodipodi:role="line"
         id="tspan12708"
         style="stroke-width:0.264583"
         x="71.793228"
         y="15.909644">&lt;/&gt;</tspan></text>
    <rect
       style="fill:#40b5ff;fill-opacity:1;stroke:none;stroke-width:0.264583;stroke-miterlimit:4;stroke-dasharray:none;stroke-opacity:1"
       id="rect12916"
       width="5.0619106"
       height="5.0600877"
       x="77.745369"
       y="54.229877"
       rx="0.47389984"
       ry="0.47372919" />
    <path
       sodipodi:type="star"
       style="fill:#40b5ff;fill-opacity:1;stroke:none;stroke-width:0.792032;stroke-miterlimit:4;stroke-dasharray:none;stroke-opacity:1"
       id="path13187"
       inkscape:flatsided="false"
       sodipodi:sides="3"
       sodipodi:cx="288.43097"
       sodipodi:cy="172.57011"
       sodipodi:r1="8.8692703"
       sodipodi:r2="4.4346352"
       sodipodi:arg1="0.52359878"
       sodipodi:arg2="1.5707963"
       inkscape:rounded="0"
       inkscape:randomized="0"
       d="m 296.11198,177.00475 -7.68101,0 -7.68101,0 3.8405,-6.65195 3.84051,-6.65196 3.84051,6.65196 z"
       transform="matrix(0.33411648,0,0,0.33399616,-16.093208,-5.8215781)"
       inkscape:transform-center-y="-0.74057689"
       inkscape:transform-center-x="-1.0561177e-06" />
    <path
       sodipodi:type="star"
       style="fill:#40b5ff;fill-opacity:1;stroke:none;stroke-width:0.792032;stroke-miterlimit:4;stroke-dasharray:none;stroke-opacity:1"
       id="path13269"
       inkscape:flatsided="false"
       sodipodi:sides="3"
       sodipodi:cx="288.43097"
       sodipodi:cy="172.57011"
       sodipodi:r1="8.8692703"
       sodipodi:r2="4.4346352"
       sodipodi:arg1="0.52359878"
       sodipodi:arg2="1.5707963"
       inkscape:rounded="0"
       inkscape:randomized="0"
       d="m 296.11198,177.00475 -7.68101,0 -7.68101,0 3.8405,-6.65195 3.84051,-6.65196 3.84051,6.65196 z"
       transform="matrix(0,0.33399616,-0.33411648,0,143.14793,-39.574915)"
       inkscape:transform-center-x="-0.74084125" />
    <path
       sodipodi:type="star"
       style="fill:#40b5ff;fill-opacity:1;stroke:none;stroke-width:0.792032;stroke-miterlimit:4;stroke-dasharray:none;stroke-opacity:1"
       id="path13271"
       inkscape:flatsided="false"
       sodipodi:sides="3"
       sodipodi:cx="288.43097"
       sodipodi:cy="172.57011"
       sodipodi:r1="8.8692703"
       sodipodi:r2="4.4346352"
       sodipodi:arg1="0.52359878"
       sodipodi:arg2="1.5707963"
       inkscape:rounded="0"
       inkscape:randomized="0"
       d="m 296.11198,177.00475 -7.68101,0 -7.68101,0 3.8405,-6.65195 3.84051,-6.65196 3.84051,6.65196 z"
       transform="matrix(0,0.33399616,0.33411648,0,17.404728,-39.574915)"
       inkscape:transform-center-x="0.74083911" />
    <path
       sodipodi:type="star"
       style="fill:#40b5ff;fill-opacity:1;stroke:none;stroke-width:0.792032;stroke-miterlimit:4;stroke-dasharray:none;stroke-opacity:1"
       id="path13273"
       inkscape:flatsided="false"
       sodipodi:sides="3"
       sodipodi:cx="288.43097"
       sodipodi:cy="172.57011"
       sodipodi:r1="8.8692703"
       sodipodi:r2="4.4346352"
       sodipodi:arg1="0.52359878"
       sodipodi:arg2="1.5707963"
       inkscape:rounded="0"
       inkscape:randomized="0"
       d="m 296.11198,177.00475 -7.68101,0 -7.68101,0 3.8405,-6.65195 3.84051,-6.65196 3.84051,6.65196 z"
       transform="matrix(0.33411648,0,0,-0.33399616,-16.093208,119.3963)"
       inkscape:transform-center-y="0.7405716"
       inkscape:transform-center-x="-1.0561177e-06" />
    <path
       style="fill:none;stroke:#246fff;stroke-width:1.05833;stroke-linecap:butt;stroke-linejoin:miter;stroke-miterlimit:4;stroke-dasharray:none;stroke-opacity:1"
       d="m 38.805538,8.7073767 c 3.480253,0.147862 6.338825,1.3648803 6.765853,6.7636253"
       id="path13433"
       sodipodi:nodetypes="cc" />
    <path
       style="fill:none;stroke:#246fff;stroke-width:1.05833;stroke-linecap:butt;stroke-linejoin:miter;stroke-miterlimit:4;stroke-dasharray:none;stroke-opacity:1"
       d="m 39.147605,3.9665617 c 5.614411,0.246026 10.225915,2.27101 10.914803,11.2539313"
       id="path13652"
       sodipodi:nodetypes="cc" />
    <rect
       style="fill:#e4e4e4;fill-opacity:1;stroke:#000000;stroke-width:0.264583;stroke-miterlimit:4;stroke-dasharray:none;stroke-opacity:1"
       id="rect14024"
       width="31.072767"
       height="15.506941"
       x="7.3209128"
       y="60.280815"
       rx="1.4592924"
       ry="1.4592924" />
    <rect
       style="fill:#292929;fill-opacity:1;stroke:none;stroke-width:0.264583;stroke-miterlimit:4;stroke-dasharray:none;stroke-opacity:1"
       id="rect14026"
       width="3.175"
       height="3.175"
       x="9.5542202"
       y="61.930672"
       rx="0.51087117"
       ry="0.51087117" />
    <rect
       style="fill:#292929;fill-opacity:1;stroke:none;stroke-width:0.264583;stroke-miterlimit:4;stroke-dasharray:none;stroke-opacity:1"
       id="rect16100"
       width="3.175"
       height="3.175"
       x="14.212404"
       y="61.930672"
       rx="0.51087117"
       ry="0.51087117" />
    <rect
       style="fill:#292929;fill-opacity:1;stroke:none;stroke-width:0.264583;stroke-miterlimit:4;stroke-dasharray:none;stroke-opacity:1"
       id="rect16102"
       width="3.175"
       height="3.175"
       x="18.870592"
       y="61.930672"
       rx="0.51087117"
       ry="0.51087117" />
    <rect
       style="fill:#292929;fill-opacity:1;stroke:none;stroke-width:0.264583;stroke-miterlimit:4;stroke-dasharray:none;stroke-opacity:1"
       id="rect16104"
       width="3.175"
       height="3.175"
       x="23.528788"
       y="61.930672"
       rx="0.51087117"
       ry="0.51087117" />
    <rect
       style="fill:#292929;fill-opacity:1;stroke:none;stroke-width:0.264583;stroke-miterlimit:4;stroke-dasharray:none;stroke-opacity:1"
       id="rect16106"
       width="3.175"
       height="3.175"
       x="28.186975"
       y="61.930672"
       rx="0.51087117"
       ry="0.51087117" />
    <rect
       style="fill:#292929;fill-opacity:1;stroke:none;stroke-width:0.264583;stroke-miterlimit:4;stroke-dasharray:none;stroke-opacity:1"
       id="rect16108"
       width="3.175"
       height="3.175"
       x="32.845154"
       y="61.930672"
       rx="0.51087117"
       ry="0.51087117" />
    <rect
       style="fill:#292929;fill-opacity:1;stroke:none;stroke-width:0.264583;stroke-miterlimit:4;stroke-dasharray:none;stroke-opacity:1"
       id="rect16110"
       width="3.175"
       height="3.175"
       x="9.5542202"
       y="66.305862"
       rx="0.51087117"
       ry="0.51087117" />
    <rect
       style="fill:#292929;fill-opacity:1;stroke:none;stroke-width:0.264583;stroke-miterlimit:4;stroke-dasharray:none;stroke-opacity:1"
       id="rect16112"
       width="3.175"
       height="3.175"
       x="14.212404"
       y="66.305862"
       rx="0.51087117"
       ry="0.51087117" />
    <rect
       style="fill:#292929;fill-opacity:1;stroke:none;stroke-width:0.264583;stroke-miterlimit:4;stroke-dasharray:none;stroke-opacity:1"
       id="rect16114"
       width="3.175"
       height="3.175"
       x="18.870592"
       y="66.305862"
       rx="0.51087117"
       ry="0.51087117" />
    <rect
       style="fill:#292929;fill-opacity:1;stroke:none;stroke-width:0.264583;stroke-miterlimit:4;stroke-dasharray:none;stroke-opacity:1"
       id="rect16116"
       width="3.175"
       height="3.175"
       x="23.528788"
       y="66.305862"
       rx="0.51087117"
       ry="0.51087117" />
    <rect
       style="fill:#292929;fill-opacity:1;stroke:none;stroke-width:0.264583;stroke-miterlimit:4;stroke-dasharray:none;stroke-opacity:1"
       id="rect16118"
       width="3.175"
       height="3.175"
       x="28.186975"
       y="66.305862"
       rx="0.51087117"
       ry="0.51087117" />
    <rect
       style="fill:#292929;fill-opacity:1;stroke:none;stroke-width:0.264583;stroke-miterlimit:4;stroke-dasharray:none;stroke-opacity:1"
       id="rect16120"
       width="3.175"
       height="3.175"
       x="32.845154"
       y="66.305862"
       rx="0.51087117"
       ry="0.51087117" />
    <rect
       style="fill:#292929;fill-opacity:1;stroke:none;stroke-width:0.264583;stroke-miterlimit:4;stroke-dasharray:none;stroke-opacity:1"
       id="rect16122"
       width="3.175"
       height="3.175"
       x="9.5542202"
       y="70.800369"
       rx="0.51087117"
       ry="0.51087117" />
    <rect
       style="fill:#292929;fill-opacity:1;stroke:none;stroke-width:0.264583;stroke-miterlimit:4;stroke-dasharray:none;stroke-opacity:1"
       id="rect16128"
       width="17.25564"
       height="3.175"
       x="14.113192"
       y="70.800369"
       rx="0.51087117"
       ry="0.51087117" />
    <rect
       style="fill:#292929;fill-opacity:1;stroke:none;stroke-width:0.264583;stroke-miterlimit:4;stroke-dasharray:none;stroke-opacity:1"
       id="rect16132"
       width="3.175"
       height="3.175"
       x="32.845154"
       y="70.800369"
       rx="0.51087117"
       ry="0.51087117" />
    <rect
       style="fill:#ffffff;fill-opacity:1;stroke:#9c9c9c;stroke-width:0.651958;stroke-miterlimit:4;stroke-dasharray:none"
       id="rect2048"
       width="28.037487"
       height="17.500921"
       x="-95.500038"
       y="-119.31371"
       transform="scale(-1)" />
    <rect
       style="fill:#00b333;fill-opacity:1;stroke:none;stroke-width:0.0539879"
       id="rect2050"
       width="6.5357037"
       height="7.6487093"
       x="-81.953529"
       y="-114.38761"
       rx="0.38744092"
       ry="0.38731337"
       transform="scale(-1)" />
    <rect
       style="fill:#00dee9;fill-opacity:1;stroke:none;stroke-width:0.0269971"
       id="rect2052"
       width="2.3390591"
       height="5.3441834"
       x="-111.73279"
       y="67.743492"
       transform="rotate(-90)" />
    <rect
       style="fill:#ffffff;fill-opacity:1;stroke:#9c9c9c;stroke-width:0.651958;stroke-miterlimit:4;stroke-dasharray:none"
       id="rect1018"
       width="29.799482"
       height="15.175338"
       x="65.388908"
       y="138.75174"
       rx="2.8648992"
       ry="2.8648992" />
    <rect
       style="fill:#00dee9;fill-opacity:1;stroke:none;stroke-width:0.0269971"
       id="rect1022"
       width="2.3390591"
       height="5.3441834"
       x="79.119125"
       y="138.38582" />
    <g
       id="g2046"
       transform="matrix(-1,0,0,1,155.26267,111.47103)">
      <path
         style="fill:none;stroke:#246fff;stroke-width:1.05833;stroke-linecap:butt;stroke-linejoin:miter;stroke-miterlimit:4;stroke-dasharray:none;stroke-opacity:1"
         d="m 87.898313,22.551998 c 3.480253,0.147862 6.338825,1.364881 6.765853,6.763626"
         id="path1024"
         sodipodi:nodetypes="cc" />
      <path
         style="fill:none;stroke:#246fff;stroke-width:1.05833;stroke-linecap:butt;stroke-linejoin:miter;stroke-miterlimit:4;stroke-dasharray:none;stroke-opacity:1"
         d="m 88.24038,17.811183 c 5.614411,0.246026 10.225915,2.27101 10.914803,11.253932"
         id="path1026"
         sodipodi:nodetypes="cc" />
    </g>
    <rect
       style="fill:#fad800;fill-opacity:1;stroke:#9c9c9c;stroke-width:0.651959;stroke-miterlimit:4;stroke-dasharray:none"
       id="rect1184"
       width="29.799488"
       height="14.314044"
       x="65.388908"
       y="145.59119"
       rx="2.1734874"
       ry="2.1734874" />
    <rect
       style="fill:#ffffff;fill-opacity:1;stroke:#9c9c9c;stroke-width:0.651958;stroke-miterlimit:4;stroke-dasharray:none"
       id="rect3449"
       width="29.799482"
       height="15.175338"
       x="65.388908"
       y="138.75174"
       rx="2.8648992"
       ry="2.8648992" />
    <rect
       style="fill:#00dee9;fill-opacity:1;stroke:none;stroke-width:0.0269971"
       id="rect3451"
       width="2.3390591"
       height="5.3441834"
       x="79.119125"
       y="138.38582" />
    <rect
       style="fill:#fad800;fill-opacity:1;stroke:#9c9c9c;stroke-width:0.651959;stroke-miterlimit:4;stroke-dasharray:none"
       id="rect3453"
       width="29.799488"
       height="14.314044"
       x="65.388908"
       y="145.59119"
       rx="2.1734874"
       ry="2.1734874" />
    <rect
       style="fill:#e4e4e4;fill-opacity:1;stroke:#000000;stroke-width:0.264583;stroke-miterlimit:4;stroke-dasharray:none;stroke-opacity:1"
       id="rect3669-3"
       width="43.98315"
       height="32.641418"
       x="-4.4102435"
       y="103.86386"
       rx="2.3725815"
       ry="2.3720136" />
    <path
       style="fill:none;stroke:#000000;stroke-width:0.264583px;stroke-linecap:butt;stroke-linejoin:miter;stroke-opacity:1"
       d="M -4.3556678,131.43511 H 39.518321"
       id="path4164-6" />
    <rect
       style="fill:#e4e4e4;fill-opacity:1;stroke:#000000;stroke-width:0.264583;stroke-miterlimit:4;stroke-dasharray:none;stroke-opacity:1"
       id="rect4268-7"
       width="2.7019715"
       height="7.4850268"
       x="16.230347"
       y="136.52586" />
    <rect
       style="fill:#e4e4e4;fill-opacity:1;stroke:#000000;stroke-width:0.264583;stroke-miterlimit:4;stroke-dasharray:none;stroke-opacity:1"
       id="rect4350-5"
       width="3.0509169"
       height="22.775749"
       x="142.47354"
       y="-28.969208"
       transform="rotate(90)"
       rx="0.51594687"
       ry="0.51607037" />
    <path
       style="fill:#ffffff;fill-opacity:1;stroke:none;stroke-width:0.0618465;stroke-miterlimit:4;stroke-dasharray:none;stroke-opacity:1"
       d="m -4.1859838,121.38217 0.02033,-15.72122 0.162861,-0.35223 c 0.315644,-0.68265 0.917775,-1.13263 1.71203,-1.27942 0.26053,-0.0482 7.426365,-0.0676 20.1795328,-0.0549 l 19.775541,0.0198 0.3789,0.1742 c 0.49481,0.22749 0.92156,0.64258 1.145,1.11373 l 0.17964,0.37881 6.5e-4,15.72122 6.5e-4,9.82996 H 17.581331 -4.2064918 Z"
       id="path4469-3"
       sodipodi:nodetypes="ccssscsscccccc" />
    <circle
       style="fill:#38c2fb;fill-opacity:1;stroke:#000000;stroke-width:0.258972;stroke-opacity:1"
       id="path904"
       cx="17.783203"
       cy="117.38467"
       r="12.116398" />
    <path
       style="fill:#04ba00;fill-opacity:1;stroke:#000000;stroke-width:0.195538;stroke-linecap:butt;stroke-linejoin:miter;stroke-miterlimit:4;stroke-dasharray:none;stroke-opacity:1"
       d="m 17.740203,105.36663 c -0.841797,0.54492 -1.290456,1.9853 -0.660922,2.46718 0.629534,0.48187 1.508017,-1.72097 1.904926,-1.10569 0.39691,0.61527 -0.995868,0.9572 -1.782943,1.27266 -0.787075,0.31545 -2.257524,-0.0731 -2.867725,0.41132 -0.610201,0.48437 -0.212603,1.28092 -0.645007,1.65622 -0.432404,0.3753 -1.267495,-0.0518 -1.614234,0.37832 -0.346739,0.43015 -0.380947,1.25972 -0.02702,1.6568 0.353923,0.39708 0.886531,0.35778 1.527037,0.15089 0.640506,-0.2069 1.269396,-1.41856 1.877023,-1.65746 0.607626,-0.2389 0.864984,-0.39535 1.188298,-0.12204 0.323314,0.27331 0.456121,1.02172 0.330289,1.31817 -0.125833,0.29644 -0.670045,0.0586 -0.599411,0.35519 0.07063,0.29662 0.807304,0.43014 1.131224,0.16812 0.323919,-0.26203 -0.481549,-1.2995 -0.04424,-1.47983 0.437306,-0.18033 0.588509,0.77306 1.008753,0.91567 0.420243,0.14262 0.882859,0.12335 1.295883,-0.10746 0.413024,-0.23082 0.510799,-1.02089 0.911781,-1.23924 0.706661,-0.92749 1.916498,0.57055 1.091893,0.9348 -0.147162,0.0422 -1.514306,-0.1549 -1.714516,0.31239 -0.200209,0.4673 0.782537,0.74896 0.717661,1.09299 -0.06488,0.34404 -0.02018,0.2662 -0.646812,0.45886 -0.626635,0.19267 -2.250245,0.0831 -3.13981,-0.0642 -0.889566,-0.14727 -1.607773,-0.60828 -2.162989,-0.68738 -0.555215,-0.0791 -0.68286,-0.0504 -1.095009,0.027 -0.412149,0.0775 -0.912896,0.19365 -1.33621,0.48309 -0.423313,0.28943 -0.843485,0.83261 -1.089745,1.24684 -0.246261,0.41423 -0.369015,0.77101 -0.428817,1.15869 -0.0598,0.38768 -0.0412,0.70173 0.05405,1.11679 0.09524,0.41505 0.162827,0.98258 0.563238,1.32195 0.400411,0.33937 1.55363,0.3769 1.664039,0.40392 0.110409,0.027 1.645507,-0.31005 2.348026,0.2672 0.702518,0.57725 0.816626,2.16041 0.93882,2.9464 0.122194,0.78599 -0.141178,1.09202 0,1.68023 0.141177,0.58821 0.426653,1.34366 0.88473,1.73692 0.458077,0.39326 0.884683,0.63198 1.588611,0.5249 0.703928,-0.10708 2.113749,-1.38278 2.113749,-1.51236 0,-0.12957 0.495462,-1.52848 0.756315,-2.15564 0.260853,-0.62717 0.419366,-1.16154 0.780452,-1.61203 0.361086,-0.4505 1.045387,-0.58994 1.311044,-1.0394 0.265658,-0.44947 0.441671,-1.02893 0.242861,-1.4392 -0.198811,-0.41027 -0.606654,-0.15425 -1.118991,-0.61298 -0.512338,-0.45873 -2.397181,-1.6783 -1.636208,-2.33387 0.760974,-0.65558 1.600392,1.97539 2.302307,2.18813 0.701915,0.21273 0.78959,-0.0316 1.206481,-0.20886 0.416893,-0.17721 1.011891,-0.50261 1.20465,-0.88286 0.192759,-0.38025 0.313735,-0.65121 0,-1.06437 -0.313735,-0.41317 -1.526076,-0.28287 -1.973078,-0.55009 -0.447001,-0.26722 -1.069893,-0.24155 -0.745497,-0.77643 0.324397,-0.53488 1.87654,0.57528 2.569299,0.7517 0.692757,0.17643 1.097134,0.0364 1.575407,0.34257 0.478273,0.30619 1.053658,1.28275 1.080682,1.43334 0.027,0.15058 0.393453,1.38085 0.675585,1.71666 0.282128,0.33581 -0.332833,1.4531 0.324319,1.02169 0.657161,-0.43141 0.0835,-3.48102 -0.198379,-4.50348 -0.951513,-3.78477 -4.834238,-8.7283 -11.64187,-8.76273 z"
       id="path1239"
       sodipodi:nodetypes="czzzzzzzzzzzzzzzzcczzzzzzzzzzzzzzzzzzzzzzzzzzzzzzzzzzzcc" />
  </g>
</svg>
